<?xml version="1.0" standalone="no"?>
<!DOCTYPE svg PUBLIC "-//W3C//DTD SVG 20010904//EN"
 "http://www.w3.org/TR/2001/REC-SVG-20010904/DTD/svg10.dtd">
<svg version="1.0" xmlns="http://www.w3.org/2000/svg"
 width="512.000000pt" height="512.000000pt" viewBox="0 0 512.000000 512.000000"
 preserveAspectRatio="xMidYMid meet">
<metadata>
Created by potrace 1.11, written by Peter Selinger 2001-2013
</metadata>
<g transform="translate(0.000000,512.000000) scale(0.100000,-0.100000)"
fill="#000000" stroke="none">
<path d="M4033 4831 c-18 -5 -43 -16 -55 -25 -13 -9 -39 -27 -58 -40 -61 -41
-142 -128 -163 -174 -29 -66 -28 -217 2 -291 49 -120 143 -202 285 -247 62
-19 92 -24 126 -19 271 41 417 331 295 589 -32 68 -98 134 -175 175 -53 28
-75 34 -144 37 -44 2 -96 -1 -113 -5z m167 -256 c58 -29 80 -58 87 -115 12
-85 -47 -170 -128 -185 -119 -22 -233 95 -200 205 14 46 63 96 106 109 51 15
84 12 135 -14z"/>
<path d="M1472 3868 l3 -173 28 -3 27 -3 0 -511 0 -510 -91 -182 c-51 -99
-108 -212 -129 -251 -20 -38 -101 -194 -178 -345 -77 -151 -191 -372 -251
-490 -61 -118 -143 -278 -182 -355 l-71 -141 -1 -129 c-1 -137 12 -193 61
-274 35 -57 112 -130 181 -171 127 -75 40 -70 1175 -70 834 1 1025 3 1045 14
24 13 24 14 -100 134 l-124 121 -927 1 c-838 0 -932 2 -970 17 -101 39 -156
115 -144 200 3 25 42 119 90 216 46 95 145 296 219 447 228 464 420 857 506
1031 l81 167 0 485 c0 420 2 486 15 491 18 7 485 6 538 -1 l37 -5 0 -485 0
-485 212 -419 c116 -230 215 -419 220 -419 4 0 8 116 8 258 l0 257 -51 90
c-27 50 -75 136 -105 191 l-54 102 0 506 0 506 25 10 25 10 0 170 0 170 -560
0 -560 0 2 -172z"/>
<path d="M3349 4021 c-59 -19 -123 -67 -171 -130 -25 -32 -27 -44 -28 -117 0
-102 21 -154 87 -210 70 -60 103 -74 173 -74 75 0 130 25 182 83 57 62 72 101
72 187 1 95 -21 152 -78 202 -61 53 -167 80 -237 59z m140 -186 c78 -89 -3
-201 -119 -166 -22 6 -45 21 -51 34 -21 38 -16 99 9 135 21 29 28 32 77 32 48
0 56 -3 84 -35z"/>
<path d="M3016 3423 c-191 -3 -211 -5 -237 -24 -28 -20 -29 -22 -29 -114 l0
-94 45 -51 45 -51 0 -1168 c0 -1307 -7 -1177 76 -1321 113 -196 281 -311 489
-335 132 -14 291 38 391 128 72 65 148 183 190 294 l24 63 0 1173 0 1173 45
41 45 40 0 81 0 80 -46 41 -47 41 -96 0 c-53 0 -229 2 -391 4 -162 1 -389 1
-504 -1z m802 -1557 l2 -1099 -27 -54 c-58 -113 -161 -202 -277 -239 -55 -17
-60 -17 -124 0 -141 37 -255 120 -318 232 l-34 61 0 1095 c0 602 3 1098 7
1101 4 4 178 6 387 5 l381 -3 3 -1099z"/>
<path d="M3130 1527 l0 -703 36 -60 c46 -77 84 -115 147 -150 44 -24 63 -28
123 -27 120 1 206 61 263 183 l26 55 3 400 c2 220 1 536 -3 703 l-7 302 -294
0 -294 0 0 -703z"/>
<path d="M1456 1553 c-68 -137 -154 -306 -190 -378 -90 -178 -104 -261 -59
-349 20 -40 42 -61 93 -87 41 -22 43 -22 738 -20 481 1 700 5 709 13 10 8 13
67 13 256 l0 245 -102 191 c-56 105 -123 232 -149 281 l-48 90 -440 3 -441 2
-124 -247z"/>
</g>
</svg>
